<svg width="93" height="90" viewBox="0 0 93 90" fill="none" xmlns="http://www.w3.org/2000/svg">
<path d="M78.9308 14.6733L57.067 40.3284L72.5145 45.381C74.4613 46.0155 76.5002 46.2923 78.5392 46.2116C79.2073 46.1885 79.8524 46.0501 80.4975 45.877C82.3521 45.381 84.1146 44.5735 85.7042 43.5007L87.5128 42.2664C89.5402 42.0588 92.4431 45.208 92.2127 47.2267L90.934 55.9937C90.6921 58.1278 86.1881 58.2778 84.2182 57.4242L79.311 54.0442C78.3894 53.4098 77.3757 52.8907 76.2929 52.5561C74.6802 52.0601 73.0099 51.8179 71.328 51.8179H55.2009L69.2315 84.9827L57.2859 89.5508L44.9486 55.7976L25.2851 83.1716L14.2495 74.5084L36.1133 48.8532L0 45.4733L2.05045 32.1958L38.1868 37.11L23.5571 4.59116L34.9383 0L48.2317 33.384L67.8953 6.01004L78.9308 14.6733Z" fill="#5A5A5A"/>
</svg>
