<svg width="1101" height="247" viewBox="0 0 1101 247" fill="none" xmlns="http://www.w3.org/2000/svg">
<g clip-path="url(#clip0_2474_4)">
<path d="M78.9308 16.1844L57.067 41.8395L72.5145 46.8921C74.4613 47.5266 76.5002 47.8034 78.5392 47.7227C79.2073 47.6996 79.8524 47.5612 80.4975 47.3881C82.3521 46.8921 84.1146 46.0846 85.7042 45.0118L87.5128 43.7775C89.5402 43.5699 92.4431 46.7191 92.2127 48.7378L90.934 57.5048C90.6921 59.6389 86.1881 59.7889 84.2182 58.9353L79.311 55.5553C78.3894 54.9209 77.3757 54.4018 76.2929 54.0672C74.6802 53.5712 73.0099 53.329 71.328 53.329H55.2009L69.2315 86.4938L57.2859 91.0619L44.9486 57.3087L25.2851 84.6827L14.2495 76.0195L36.1133 50.3643L0 46.9844L2.05045 33.7069L38.1868 38.6211L23.5571 6.10227L34.9383 1.51111L48.2317 34.8951L67.8953 7.52115L78.9308 16.1844Z" fill="#5A5A5A"/>
<path d="M100.517 75.4196L120.088 66.8487V61.2655C120.088 55.5438 118.936 51.3564 116.621 48.6686C114.306 45.9923 110.665 44.6542 105.678 44.6542C102.775 44.6542 100.667 45.2425 99.3534 46.4192C98.0402 47.5958 96.7961 49.9606 95.6096 53.502C94.6074 56.0398 93.6398 57.7702 92.6837 58.6699C91.7276 59.5813 90.3452 60.0311 88.5367 60.0311C84.0096 60.0311 81.7403 57.7586 81.7403 53.2251C81.7403 48.6917 84.0557 45.4848 88.6749 43.0854C93.2942 40.686 99.8602 39.4747 108.385 39.4747C117.531 39.4747 123.993 41.0666 127.749 44.2389C131.504 47.4112 133.393 52.9022 133.393 60.7117V91.2003C133.393 96.8297 133.935 100.821 135.029 103.174C136.112 105.539 137.84 106.716 140.19 106.716C141.1 106.716 142.159 106.508 143.38 106.104C144.602 105.701 145.535 104.905 146.168 103.716L148.069 106.981C146.986 109.069 144.982 110.811 142.09 112.218C139.187 113.625 136.158 114.329 132.978 114.329C129.085 114.329 126.136 113.06 124.143 110.522C122.15 107.985 121.148 104.397 121.148 99.7712H120.468C118.026 104.224 114.709 107.731 110.55 110.326C106.38 112.91 101.761 114.202 96.6809 114.202C91.1516 114.202 86.7397 112.726 83.4336 109.784C80.1275 106.831 78.4688 102.909 78.4688 98.0063C78.4688 93.7381 80.0584 89.816 83.2263 86.2285C86.3941 82.6409 92.1538 79.0418 100.494 75.4081L100.517 75.4196ZM120.088 83.4484V72.6972C109.663 76.5963 102.418 80.4376 98.3397 84.1982C94.2618 87.9588 92.2229 91.8002 92.2229 95.6992C92.2229 98.7907 93.2136 101.282 95.2179 103.186C97.2108 105.089 99.7451 106.047 102.832 106.047C106.092 106.047 109.041 105.031 111.668 102.99C114.294 100.948 116.356 98.2024 117.854 94.7533C119.351 91.3041 120.1 87.5435 120.1 83.4599L120.088 83.4484Z" fill="black"/>
<path d="M161.01 108.215L158.292 112.98H155.297V89.5624H158.695C162.232 102.355 168.659 108.758 178.002 108.758C181.63 108.758 184.499 107.869 186.63 106.104C188.761 104.339 189.82 101.64 189.82 98.0064C189.82 96.1953 189.429 94.6726 188.669 93.4499C187.897 92.2271 186.376 90.8197 184.118 89.2278C181.849 87.6359 178.497 85.4788 174.062 82.7564C169.984 80.1263 166.586 77.7615 163.867 75.6735C161.149 73.5856 159.11 71.3592 157.751 69.006C156.391 66.6527 155.712 63.7919 155.712 60.435C155.712 56.2591 156.622 52.6023 158.43 49.4762C160.239 46.3501 162.669 43.893 165.699 42.128C168.728 40.3631 172.161 39.4749 175.963 39.4749C178.405 39.4749 180.951 39.8671 183.577 40.6284C186.203 41.4013 188.519 42.4164 190.512 43.6853L193.23 40.8245H195.811V60.4235H192.274C190.281 54.8864 188.104 50.9412 185.754 48.5764C183.393 46.2232 180.501 45.035 177.057 45.035C173.97 45.035 171.505 45.854 169.65 47.4805C167.795 49.1186 166.862 51.3796 166.862 54.2865C166.862 57.1935 167.922 59.7313 170.053 61.6347C172.184 63.5381 175.559 65.949 180.179 68.8445C185.432 72.109 189.648 74.9468 192.816 77.3577C195.983 79.7687 198.299 82.2142 199.75 84.7059C201.202 87.2091 201.927 90.1738 201.927 93.6229C201.927 99.979 199.819 105.009 195.603 108.735C191.387 112.461 185.927 114.318 179.223 114.318C172.15 114.318 166.079 112.276 161.01 108.192V108.215Z" fill="black"/>
<path d="M217.078 49.4185H208.922V44.3774C213.725 41.4704 217.481 38.6442 220.199 35.8641C222.918 33.0956 225.003 29.7618 226.454 25.8628H230.394V43.0162H248.606V49.4185H230.394V90.7966C230.394 97.1527 231.051 101.548 232.364 104.005C233.677 106.45 236.142 107.685 239.771 107.685C242.04 107.685 243.987 107.212 245.611 106.254C247.247 105.297 248.779 103.693 250.23 101.421L253.629 104.005C251.002 110.903 244.931 114.352 235.416 114.352C229.438 114.352 224.888 112.899 221.754 109.992C218.633 107.085 217.066 103.001 217.066 97.7411V49.4185H217.078Z" fill="black"/>
<path d="M317.945 96.5183L322.161 100.325C314.454 109.669 304.893 114.341 293.477 114.341C286.404 114.341 280.195 112.795 274.85 109.715C269.505 106.635 265.335 102.344 262.34 96.8529C259.345 91.3619 257.859 84.9943 257.859 77.7269C257.859 70.4594 259.449 63.688 262.617 57.9203C265.785 52.164 270.162 47.642 275.737 44.3775C281.313 41.1129 287.764 39.4749 295.102 39.4749C303.799 39.4749 310.572 41.8627 315.422 46.6269C320.271 51.3911 322.69 58.2202 322.69 67.1141C322.69 68.2907 322.437 69.0406 321.942 69.3636C321.446 69.6866 320.283 69.8365 318.474 69.8365H273.756C273.572 70.5633 273.434 71.4515 273.353 72.4897C273.261 73.5394 273.215 74.693 273.215 75.9619C273.215 82.2257 274.205 87.7167 276.21 92.4347C278.203 97.1528 281.013 100.81 284.642 103.394C288.271 105.978 292.475 107.269 297.279 107.269C300.988 107.269 304.524 106.404 307.877 104.686C311.229 102.967 314.581 100.244 317.933 96.5183H317.945ZM274.724 63.5727H299.732C303.442 63.5727 305.734 63.342 306.598 62.8921C307.462 62.4422 307.888 61.3925 307.888 59.766C307.888 55.5901 306.529 52.2563 303.81 49.7646C301.092 47.2729 297.463 46.0155 292.936 46.0155C283.144 46.0155 277.074 51.8641 274.724 63.5727Z" fill="black"/>
<path d="M356.754 86.7131V91.3389C356.754 96.3338 356.961 99.979 357.364 102.298C357.768 104.616 358.77 106.104 360.359 106.785C361.949 107.466 364.46 107.939 367.905 108.215V112.98H331.745V108.215C335.282 108.031 337.862 107.581 339.498 106.854C341.134 106.127 342.193 104.651 342.689 102.436C343.184 100.21 343.437 96.8298 343.437 92.2963V76.3657C343.437 70.1941 343.345 65.3607 343.161 61.8654C342.977 58.3701 342.527 55.8554 341.802 54.3096C341.076 52.7639 339.901 51.8179 338.265 51.4488C336.629 51.0912 334.372 50.9066 331.469 50.9066V46.1424L355.256 40.9745L357.157 57.851H357.698C360.14 52.4062 363.539 47.9766 367.893 44.5851C372.247 41.1821 376.728 39.4749 381.348 39.4749C384.251 39.4749 386.531 40.1785 388.213 41.5859C389.884 42.9932 390.724 44.8735 390.724 47.2383C390.724 51.8641 388.098 54.1827 382.845 54.1827C380.945 54.1827 379.401 53.8943 378.226 53.2945C377.051 52.7062 376.003 52.1409 375.104 51.5988C374.194 51.0566 373.203 50.7797 372.109 50.7797C369.667 50.7797 367.213 52.3486 364.771 55.4747C362.329 58.6009 360.417 62.5806 359.058 67.391C357.514 72.7435 356.742 79.1919 356.742 86.7246L356.754 86.7131Z" fill="black"/>
<path d="M421.055 39.4748V91.3388C421.055 95.9646 421.377 99.483 422.011 101.894C422.644 104.293 423.865 105.908 425.686 106.727C427.494 107.546 430.167 108.042 433.703 108.227V112.991H394.687V108.227C398.396 108.042 401.184 107.523 403.05 106.658C404.905 105.793 406.149 104.259 406.794 102.032C407.427 99.806 407.75 96.5645 407.75 92.2963V74.8776C407.75 69.6173 407.681 65.2569 407.542 61.8077C407.404 58.3586 407.151 56.0399 406.794 54.8633C406.425 52.7754 405.411 51.345 403.73 50.5721C402.048 49.7992 398.949 49.4185 394.422 49.4185V44.6543L421.066 39.4864L421.055 39.4748ZM405.423 18.7685C405.423 16.4152 406.241 14.408 407.865 12.7815C409.489 11.155 411.494 10.3359 413.844 10.3359C416.194 10.3359 418.198 11.155 419.822 12.7815C421.446 14.408 422.264 16.4152 422.264 18.7685C422.264 21.1217 421.446 23.1289 419.822 24.7554C418.198 26.3819 416.194 27.201 413.844 27.201C411.494 27.201 409.489 26.3819 407.865 24.7554C406.241 23.1289 405.423 21.1217 405.423 18.7685Z" fill="black"/>
<path d="M449.464 108.215L446.745 112.98H443.75V89.5624H447.148C450.685 102.355 457.112 108.758 466.455 108.758C470.083 108.758 472.952 107.869 475.083 106.104C477.214 104.339 478.274 101.64 478.274 98.0064C478.274 96.1953 477.882 94.6726 477.122 93.4499C476.35 92.2271 474.829 90.8197 472.571 89.2278C470.302 87.6359 466.95 85.4788 462.515 82.7564C458.437 80.1263 455.039 77.7615 452.32 75.6735C449.602 73.5856 447.563 71.3592 446.204 69.006C444.844 66.6527 444.165 63.7919 444.165 60.435C444.165 56.2591 445.075 52.6023 446.883 49.4762C448.692 46.3501 451.122 43.893 454.152 42.128C457.182 40.3631 460.614 39.4749 464.416 39.4749C466.858 39.4749 469.404 39.8671 472.03 40.6284C474.657 41.4013 476.972 42.4164 478.965 43.6853L481.683 40.8245H484.264V60.4235H480.727C478.734 54.8864 476.557 50.9412 474.207 48.5764C471.846 46.2232 468.954 45.035 465.51 45.035C462.423 45.035 459.958 45.854 458.103 47.4805C456.249 49.1186 455.315 51.3796 455.315 54.2865C455.315 57.1935 456.375 59.7313 458.506 61.6347C460.637 63.5381 464.013 65.949 468.632 68.8445C473.885 72.109 478.101 74.9468 481.269 77.3577C484.436 79.7687 486.752 82.2142 488.203 84.7059C489.655 87.2091 490.38 90.1738 490.38 93.6229C490.38 99.979 488.272 105.009 484.056 108.735C479.84 112.461 474.38 114.318 467.676 114.318C460.603 114.318 454.532 112.276 449.464 108.192V108.215Z" fill="black"/>
<path d="M573.849 112.98H554.22C554.22 112.98 549.774 104.685 548.414 102.771C547.055 100.867 545.293 98.6062 543.115 95.9646L528.705 78.5458L522.519 84.4636V91.3388C522.519 95.9646 522.818 99.4829 523.406 101.894C523.993 104.293 525.191 105.908 527.011 106.727C528.82 107.535 531.538 108.042 535.167 108.215V112.98H496.566V108.215C500.183 108.042 502.924 107.535 504.79 106.727C506.645 105.908 507.912 104.362 508.592 102.09C509.271 99.829 509.606 96.5644 509.606 92.2962V35.2643C509.606 28.366 509.548 23.1289 509.41 19.5413C509.271 15.9537 508.799 13.5774 507.981 12.3892C507.163 11.1203 505.804 10.3705 503.903 10.1398C502.003 9.92061 499.457 9.80525 496.289 9.80525V5.17948L522.519 0V74.7391L556.731 40.836L560.36 37.2715L563.574 40.836L569.898 47.4689L537.137 72.5473L573.849 112.98Z" fill="black"/>
<path d="M545.359 52.014L545.844 51.541C545.705 51.7025 545.567 51.8755 545.417 52.0486C545.394 52.0486 545.382 52.0255 545.359 52.014Z" fill="black"/>
<path d="M698.833 172.134C705.721 172.134 712.057 173.726 717.863 176.898C723.657 180.071 728.311 184.431 731.79 189.968C735.28 195.505 737.02 201.861 737.02 209.025C737.02 214.562 736.006 219.638 733.967 224.275C731.928 228.901 729.163 232.915 725.673 236.318C722.183 239.721 718.128 242.351 713.509 244.208C708.889 246.066 703.994 247 698.833 247C692.036 247 685.781 245.362 680.079 242.097C674.377 238.833 669.793 234.334 666.348 228.624C662.904 222.902 661.188 216.373 661.188 209.025C661.188 201.677 662.904 195.505 666.348 189.968C669.793 184.431 674.366 180.082 680.079 176.898C685.793 173.726 692.036 172.134 698.833 172.134ZM698.833 178.675C694.386 178.675 690.493 179.944 687.141 182.481C683.789 185.019 681.185 188.584 679.319 193.163C677.464 197.743 676.531 203.084 676.531 209.163C676.531 218.507 678.547 225.994 682.579 231.623C686.611 237.252 692.025 240.067 698.821 240.067C705.618 240.067 711.343 237.252 715.478 231.623C719.602 225.994 721.664 218.507 721.664 209.163C721.664 203.084 720.708 197.778 718.807 193.233C716.907 188.699 714.257 185.135 710.859 182.551C707.461 179.967 703.452 178.675 698.833 178.675Z" fill="black"/>
<path d="M105.133 172.134V223.998C105.133 228.624 105.455 232.142 106.089 234.553C106.722 236.952 107.944 238.567 109.764 239.386C111.572 240.206 114.245 240.702 117.781 240.886V245.65H78.7649V240.886C82.4742 240.702 85.2619 240.182 87.128 239.317C88.9826 238.452 90.2267 236.918 90.8718 234.691C91.5054 232.465 91.8279 229.224 91.8279 224.955V207.537C91.8279 202.277 91.7588 197.916 91.6206 194.467C91.4823 191.018 91.2289 188.699 90.8718 187.522C90.5032 185.435 89.4895 184.004 87.8077 183.231C86.1258 182.458 83.0271 182.078 78.5 182.078V177.313L105.144 172.146L105.133 172.134ZM89.501 151.428C89.501 149.074 90.3189 147.067 91.9431 145.441C93.5674 143.814 95.5717 142.995 97.9217 142.995C100.272 142.995 102.276 143.814 103.9 145.441C105.524 147.067 106.342 149.074 106.342 151.428C106.342 153.781 105.524 155.788 103.9 157.415C102.276 159.041 100.272 159.86 97.9217 159.86C95.5717 159.86 93.5674 159.041 91.9431 157.415C90.3189 155.788 89.501 153.781 89.501 151.428Z" fill="black"/>
<path d="M148.492 206.037V224.275C148.492 229.177 148.699 232.765 149.102 235.026C149.506 237.299 150.531 238.798 152.155 239.513C153.791 240.24 156.325 240.736 159.769 241.013V245.639H124.151V241.013C127.504 240.736 129.992 240.263 131.628 239.583C133.263 238.902 134.323 237.472 134.818 235.291C135.314 233.111 135.567 229.754 135.567 225.221V207.121C135.567 196.232 135.291 189.657 134.749 187.384C134.208 184.938 133.252 183.37 131.892 182.689C130.533 182.008 127.861 181.674 123.875 181.674V177.313L145.624 172.146L147.259 185.619H147.801C151.245 181.351 155.3 178.04 159.965 175.687C164.631 173.334 169.642 172.146 174.987 172.146C179.157 172.146 182.958 172.826 186.402 174.187C189.847 175.549 192.473 177.406 194.281 179.771C195.825 181.858 196.908 184.558 197.541 187.869C198.175 191.179 198.498 195.747 198.498 201.55V224.286C198.498 229.189 198.728 232.777 199.177 235.038C199.626 237.31 200.652 238.81 202.241 239.525C203.831 240.252 206.25 240.748 209.51 241.025V245.65H174.307V241.025C177.751 240.84 180.262 240.39 181.852 239.663C183.442 238.937 184.455 237.46 184.916 235.245C185.365 233.019 185.596 229.685 185.596 225.244V207.271C185.596 197.016 184.421 189.83 182.059 185.7C179.698 181.57 175.712 179.505 170.102 179.505C166.117 179.505 162.396 180.578 158.952 182.701C155.507 184.835 152.835 187.765 150.934 191.479C150.3 192.656 149.805 193.821 149.437 194.951C149.068 196.082 148.826 197.489 148.688 199.173C148.55 200.858 148.48 203.142 148.48 206.049L148.492 206.037Z" fill="black"/>
<path d="M221.57 182.078H213.414V177.037C218.218 174.13 221.973 171.303 224.692 168.523C227.41 165.755 229.495 162.421 230.947 158.522H234.886V174.522L256.554 172.215V182.078H234.886V223.456C234.886 229.812 235.543 234.207 236.856 236.664C238.169 239.11 240.634 240.344 244.263 240.344C246.532 240.344 248.479 239.871 250.103 238.913C251.739 237.956 253.271 236.353 254.723 234.08L258.121 236.664C255.494 243.562 249.424 247.011 239.909 247.011C233.93 247.011 229.368 245.558 226.247 242.651C223.125 239.744 221.558 235.66 221.558 230.4V182.078H221.57Z" fill="black"/>
<path d="M323.585 229.178L327.801 232.984C320.095 242.328 310.534 247 299.118 247C292.045 247 285.836 245.454 280.491 242.374C275.146 239.294 270.976 235.003 267.981 229.512C264.986 224.021 263.5 217.653 263.5 210.386C263.5 203.119 265.09 196.347 268.258 190.579C271.425 184.823 275.803 180.301 281.378 177.037C286.953 173.772 293.404 172.134 300.754 172.134C309.451 172.134 316.224 174.522 321.074 179.286C325.924 184.05 328.343 190.879 328.343 199.773C328.343 200.95 328.089 201.7 327.594 202.023C327.099 202.346 325.935 202.496 324.127 202.496H279.408C279.224 203.222 279.086 204.111 279.005 205.149C278.913 206.199 278.867 207.352 278.867 208.621C278.867 214.885 279.869 220.376 281.862 225.094C283.855 229.812 286.665 233.469 290.294 236.053C293.923 238.637 298.127 239.929 302.931 239.929C306.64 239.929 310.177 239.064 313.529 237.345C316.881 235.626 320.233 232.904 323.585 229.178ZM280.353 196.232H305.361C309.071 196.232 311.363 196.001 312.227 195.551C313.091 195.101 313.517 194.052 313.517 192.425C313.517 188.249 312.158 184.915 309.439 182.424C306.721 179.932 303.092 178.675 298.565 178.675C288.774 178.675 282.703 184.523 280.353 196.232Z" fill="black"/>
<path d="M362.394 219.372V223.998C362.394 228.993 362.602 232.638 363.005 234.957C363.408 237.275 364.41 238.764 366 239.444C367.59 240.125 370.101 240.598 373.545 240.875V245.639H337.386V240.875C340.922 240.69 343.503 240.24 345.138 239.513C346.774 238.787 347.834 237.31 348.329 235.095C348.825 232.869 349.078 229.489 349.078 224.955V209.025C349.078 202.853 348.986 198.02 348.802 194.525C348.617 191.029 348.168 188.515 347.442 186.969C346.717 185.423 345.542 184.477 343.906 184.108C342.27 183.75 340.012 183.566 337.109 183.566V178.802L360.897 173.634L362.798 190.51H363.339C365.781 185.065 369.179 180.636 373.534 177.244C377.888 173.841 382.369 172.134 386.988 172.134C389.891 172.134 392.172 172.838 393.854 174.245C395.536 175.652 396.365 177.533 396.365 179.897C396.365 184.523 393.739 186.842 388.486 186.842C386.585 186.842 385.042 186.554 383.867 185.954C382.692 185.365 381.643 184.8 380.745 184.258C379.835 183.716 378.844 183.439 377.75 183.439C375.308 183.439 372.854 185.008 370.412 188.134C367.97 191.26 366.058 195.24 364.698 200.05C363.155 205.403 362.383 211.851 362.383 219.384L362.394 219.372Z" fill="black"/>
<path d="M427.367 206.037V224.275C427.367 229.177 427.574 232.765 427.977 235.026C428.381 237.299 429.406 238.798 431.03 239.513C432.666 240.24 435.2 240.736 438.644 241.013V245.639H403.026V241.013C406.379 240.736 408.867 240.263 410.503 239.583C412.138 238.902 413.198 237.472 413.693 235.291C414.189 233.111 414.442 229.754 414.442 225.221V207.121C414.442 196.232 414.166 189.657 413.624 187.384C413.083 184.938 412.127 183.37 410.767 182.689C409.408 182.008 406.736 181.674 402.75 181.674V177.313L424.499 172.146L426.134 185.619H426.676C430.12 181.351 434.175 178.04 438.84 175.687C443.506 173.334 448.517 172.146 453.862 172.146C458.032 172.146 461.833 172.826 465.277 174.187C468.722 175.549 471.348 177.406 473.156 179.771C474.7 181.858 475.783 184.558 476.416 187.869C477.05 191.179 477.373 195.747 477.373 201.55V224.286C477.373 229.189 477.603 232.777 478.052 235.038C478.501 237.31 479.527 238.81 481.116 239.525C482.706 240.252 485.125 240.748 488.385 241.025V245.65H453.182V241.025C456.626 240.84 459.137 240.39 460.727 239.663C462.317 238.937 463.33 237.46 463.791 235.245C464.24 233.019 464.471 229.685 464.471 225.244V207.271C464.471 197.016 463.296 189.83 460.934 185.7C458.573 181.57 454.587 179.505 448.977 179.505C444.992 179.505 441.271 180.578 437.827 182.701C434.382 184.835 431.71 187.765 429.809 191.479C429.175 192.656 428.68 193.821 428.312 194.951C427.943 196.082 427.701 197.489 427.563 199.173C427.425 200.858 427.355 203.142 427.355 206.049L427.367 206.037Z" fill="black"/>
<path d="M518.157 208.079L537.729 199.508V193.925C537.729 188.203 536.577 184.016 534.262 181.328C531.946 178.652 528.306 177.314 523.318 177.314C520.415 177.314 518.307 177.902 516.994 179.078C515.681 180.255 514.437 182.62 513.25 186.161C512.248 188.699 511.28 190.429 510.324 191.329C509.368 192.241 507.986 192.69 506.177 192.69C501.65 192.69 499.381 190.418 499.381 185.884C499.381 181.351 501.696 178.144 506.316 175.745C510.935 173.345 517.501 172.134 526.025 172.134C535.172 172.134 541.634 173.726 545.401 176.898C549.156 180.071 551.045 185.561 551.045 193.371V223.86C551.045 229.489 551.587 233.48 552.681 235.834C553.764 238.198 555.492 239.375 557.842 239.375C558.752 239.375 559.812 239.167 561.033 238.764C562.254 238.36 563.187 237.564 563.82 236.376L565.721 239.64C564.638 241.728 562.645 243.47 559.742 244.877C556.84 246.285 553.81 246.988 550.631 246.988C546.737 246.988 543.788 245.72 541.795 243.182C539.802 240.644 538.8 237.056 538.8 232.431H538.121C535.678 236.883 532.361 240.39 528.202 242.986C524.032 245.57 519.413 246.862 514.333 246.862C508.804 246.862 504.392 245.385 501.074 242.443C497.768 239.49 496.109 235.568 496.109 230.666C496.109 226.397 497.699 222.475 500.867 218.888C504.035 215.3 509.794 211.701 518.134 208.067L518.157 208.079ZM537.729 216.108V205.357C527.304 209.256 520.058 213.097 515.98 216.858C511.902 220.618 509.864 224.459 509.864 228.358C509.864 231.45 510.866 233.942 512.859 235.845C514.851 237.748 517.386 238.706 520.473 238.706C523.733 238.706 526.682 237.691 529.308 235.649C531.935 233.607 533.997 230.862 535.494 227.413C536.992 223.963 537.74 220.203 537.74 216.119L537.729 216.108Z" fill="black"/>
<path d="M575.531 182.078H567.375V177.037C572.179 174.13 575.934 171.303 578.652 168.523C581.371 165.755 583.456 162.421 584.908 158.522H588.847V175.675H607.059V182.078H588.847V223.456C588.847 229.812 589.504 234.207 590.817 236.664C592.13 239.11 594.595 240.344 598.224 240.344C600.493 240.344 602.44 239.871 604.064 238.913C605.7 237.956 607.232 236.353 608.684 234.08L612.082 236.664C609.455 243.562 603.385 247.011 593.87 247.011C587.891 247.011 583.341 245.558 580.208 242.651C577.086 239.744 575.519 235.66 575.519 230.4V182.078H575.531Z" fill="black"/>
<path d="M642.945 172.134V223.998C642.945 228.624 643.268 232.142 643.901 234.553C644.535 236.952 645.756 238.567 647.576 239.386C649.385 240.206 652.057 240.702 655.594 240.886V245.65H616.577V240.886C620.287 240.702 623.074 240.182 624.941 239.317C626.795 238.452 628.039 236.918 628.684 234.691C629.318 232.465 629.64 229.224 629.64 224.955V207.537C629.64 202.277 629.571 197.916 629.433 194.467C629.295 191.018 629.041 188.699 628.684 187.522C628.316 185.435 627.302 184.004 625.62 183.231C623.938 182.458 620.84 182.078 616.312 182.078V177.313L642.957 172.146L642.945 172.134ZM627.313 151.428C627.313 149.074 628.131 147.067 629.756 145.441C631.38 143.814 633.384 142.995 635.734 142.995C638.084 142.995 640.088 143.814 641.713 145.441C643.337 147.067 644.155 149.074 644.155 151.428C644.155 153.781 643.337 155.788 641.713 157.415C640.088 159.041 638.084 159.86 635.734 159.86C633.384 159.86 631.38 159.041 629.756 157.415C628.131 155.788 627.313 153.781 627.313 151.428Z" fill="black"/>
<path d="M766.945 206.037V224.275C766.945 229.177 767.152 232.765 767.556 235.026C767.959 237.299 768.984 238.798 770.608 239.513C772.244 240.24 774.778 240.736 778.223 241.013V245.639H742.605V241.013C745.957 240.736 748.445 240.263 750.081 239.583C751.716 238.902 752.776 237.472 753.272 235.291C753.767 233.111 754.02 229.754 754.02 225.221V207.121C754.02 196.232 753.744 189.657 753.202 187.384C752.661 184.938 751.705 183.37 750.346 182.689C748.986 182.008 746.314 181.674 742.328 181.674V177.313L764.077 172.146L765.712 185.619H766.254C769.698 181.351 773.753 178.04 778.418 175.687C783.084 173.334 788.095 172.146 793.44 172.146C797.61 172.146 801.411 172.826 804.855 174.187C808.3 175.549 810.926 177.406 812.735 179.771C814.278 181.858 815.361 184.558 815.995 187.869C816.628 191.179 816.951 195.747 816.951 201.55V224.286C816.951 229.189 817.181 232.777 817.63 235.038C818.08 237.31 819.105 238.81 820.695 239.525C822.284 240.252 824.703 240.748 827.963 241.025V245.65H792.76V241.025C796.204 240.84 798.716 240.39 800.305 239.663C801.895 238.937 802.909 237.46 803.369 235.245C803.819 233.019 804.049 229.685 804.049 225.244V207.271C804.049 197.016 802.874 189.83 800.513 185.7C798.151 181.57 794.165 179.505 788.555 179.505C784.57 179.505 780.849 180.578 777.405 182.701C773.96 184.835 771.288 187.765 769.387 191.479C768.754 192.656 768.258 193.821 767.89 194.951C767.521 196.082 767.279 197.489 767.141 199.173C767.003 200.858 766.934 203.142 766.934 206.049L766.945 206.037Z" fill="black"/>
<path d="M856.587 208.079L876.159 199.508V193.925C876.159 188.203 875.007 184.016 872.691 181.328C870.376 178.652 866.736 177.314 861.748 177.314C858.845 177.314 856.737 177.902 855.424 179.078C854.111 180.255 852.866 182.62 851.68 186.161C850.678 188.699 849.71 190.429 848.754 191.329C847.798 192.241 846.416 192.69 844.607 192.69C840.08 192.69 837.811 190.418 837.811 185.884C837.811 181.351 840.126 178.144 844.745 175.745C849.365 173.345 855.931 172.134 864.455 172.134C873.601 172.134 880.064 173.726 883.831 176.898C887.586 180.071 889.475 185.561 889.475 193.371V223.86C889.475 229.489 890.016 233.48 891.111 235.834C892.194 238.198 893.922 239.375 896.271 239.375C897.182 239.375 898.241 239.167 899.462 238.764C900.683 238.36 901.616 237.564 902.25 236.376L904.151 239.64C903.068 241.728 901.075 243.47 898.172 244.877C895.269 246.285 892.24 246.988 889.06 246.988C885.167 246.988 882.218 245.72 880.225 243.182C878.232 240.644 877.23 237.056 877.23 232.431H876.55C874.108 236.883 870.791 240.39 866.632 242.986C862.462 245.57 857.843 246.862 852.763 246.862C847.233 246.862 842.822 245.385 839.504 242.443C836.198 239.49 834.539 235.568 834.539 230.666C834.539 226.397 836.129 222.475 839.297 218.888C842.464 215.3 848.224 211.701 856.564 208.067L856.587 208.079ZM876.159 216.108V205.357C865.734 209.256 858.488 213.097 854.41 216.858C850.332 220.618 848.293 224.459 848.293 228.358C848.293 231.45 849.295 233.942 851.288 235.845C853.281 237.748 855.815 238.706 858.903 238.706C862.163 238.706 865.112 237.691 867.738 235.649C870.364 233.607 872.426 230.862 873.924 227.413C875.421 223.963 876.17 220.203 876.17 216.119L876.159 216.108Z" fill="black"/>
<path d="M934.528 132.659V224.402C934.528 228.935 934.805 232.361 935.346 234.68C935.888 236.999 937.04 238.556 938.813 239.375C940.587 240.194 943.179 240.69 946.635 240.875V245.639H909.117V240.875C912.745 240.69 915.464 240.194 917.272 239.375C919.081 238.556 920.302 237.056 920.947 234.888C921.58 232.707 921.903 229.535 921.903 225.359V166.689C921.903 161.787 921.834 157.68 921.696 154.369C921.557 151.058 921.362 148.809 921.085 147.632C920.636 145.544 919.565 144.137 917.894 143.41C916.212 142.684 913.206 142.326 908.852 142.326V137.7L934.54 132.659H934.528Z" fill="black"/>
<path d="M979.938 172.134V223.998C979.938 228.624 980.26 232.142 980.894 234.553C981.527 236.952 982.748 238.567 984.568 239.386C986.377 240.206 989.049 240.702 992.586 240.886V245.65H953.57V240.886C957.279 240.702 960.067 240.182 961.933 239.317C963.787 238.452 965.031 236.918 965.676 234.691C966.31 232.465 966.633 229.224 966.633 224.955V207.537C966.633 202.277 966.564 197.916 966.425 194.467C966.287 191.018 966.034 188.699 965.676 187.522C965.308 185.435 964.294 184.004 962.612 183.231C960.931 182.458 957.832 182.078 953.305 182.078V177.313L979.949 172.146L979.938 172.134ZM964.306 151.428C964.306 149.074 965.124 147.067 966.748 145.441C968.372 143.814 970.376 142.995 972.726 142.995C975.076 142.995 977.081 143.814 978.705 145.441C980.329 147.067 981.147 149.074 981.147 151.428C981.147 153.781 980.329 155.788 978.705 157.415C977.081 159.041 975.076 159.86 972.726 159.86C970.376 159.86 968.372 159.041 966.748 157.415C965.124 155.788 964.306 153.781 964.306 151.428Z" fill="black"/>
<path d="M1008.35 240.875L1005.63 245.639H1002.63V222.222H1006.03C1009.57 235.015 1016 241.417 1025.34 241.417C1028.97 241.417 1031.83 240.529 1033.97 238.764C1036.1 236.999 1037.16 234.299 1037.16 230.666C1037.16 228.855 1036.76 227.332 1036 226.109C1035.23 224.886 1033.71 223.479 1031.45 221.887C1029.18 220.295 1025.83 218.138 1021.4 215.416C1017.32 212.785 1013.92 210.421 1011.2 208.333C1008.48 206.245 1006.45 204.018 1005.09 201.665C1003.73 199.312 1003.05 196.451 1003.05 193.094C1003.05 188.918 1003.96 185.262 1005.77 182.135C1007.57 179.009 1010.01 176.552 1013.03 174.787C1016.06 173.022 1019.5 172.134 1023.3 172.134C1025.74 172.134 1028.29 172.526 1030.91 173.288C1033.54 174.06 1035.85 175.076 1037.85 176.345L1040.57 173.484H1043.15V193.083H1039.61C1037.62 187.546 1035.44 183.6 1033.09 181.236C1030.73 178.882 1027.84 177.694 1024.39 177.694C1021.31 177.694 1018.84 178.513 1016.99 180.14C1015.13 181.778 1014.2 184.039 1014.2 186.946C1014.2 189.853 1015.26 192.391 1017.39 194.294C1019.52 196.197 1022.9 198.608 1027.51 201.504C1032.77 204.768 1036.98 207.606 1040.15 210.017C1043.32 212.428 1045.63 214.873 1047.09 217.365C1048.54 219.868 1049.26 222.833 1049.26 226.282C1049.26 232.638 1047.16 237.668 1042.94 241.394C1038.72 245.12 1033.26 246.977 1026.56 246.977C1019.49 246.977 1013.41 244.935 1008.35 240.852V240.875Z" fill="black"/>
<path d="M1064.42 182.078H1056.27V177.037C1061.07 174.13 1064.82 171.303 1067.54 168.523C1070.26 165.755 1072.35 162.421 1073.8 158.522H1077.74V175.675H1088.53V182.078H1077.74V223.456C1077.74 229.812 1078.39 234.207 1079.71 236.664C1081.02 239.11 1083.49 240.344 1087.11 240.344C1089.38 240.344 1091.33 239.871 1092.95 238.913C1094.59 237.956 1096.12 236.353 1097.57 234.08L1100.97 236.664C1098.35 243.562 1092.28 247.011 1082.76 247.011C1076.78 247.011 1072.23 245.558 1069.1 242.651C1065.98 239.744 1064.41 235.66 1064.41 230.4V182.078H1064.42Z" fill="black"/>
<path d="M1097.28 174.36L1090.46 175.387C1089.23 175.572 1087.97 175.664 1086.73 175.664C1086.16 175.664 1085.58 175.664 1084.39 175.675L1088.53 182.078C1090.4 182.043 1091.69 182.181 1093.33 183.035C1094.54 183.67 1094.86 184.293 1095.68 184.927C1096.44 185.515 1097.42 185.792 1098.35 185.573C1099.57 185.285 1100.52 184.431 1100.55 183.347L1100.99 176.748C1101.02 175.226 1099.23 174.072 1097.29 174.372L1097.28 174.36Z" fill="black"/>
<path d="M1064.42 182.078H1056.27V177.037C1061.07 174.13 1064.82 171.303 1067.54 168.523C1070.26 165.755 1072.35 162.421 1073.8 158.522H1077.74V175.675H1088.53V182.078H1077.74V223.456C1077.74 229.812 1078.39 234.207 1079.71 236.664C1081.02 239.11 1083.49 240.344 1087.11 240.344C1089.38 240.344 1091.33 239.871 1092.95 238.913C1094.59 237.956 1096.12 236.353 1097.57 234.08L1100.97 236.664C1098.35 243.562 1092.28 247.011 1082.76 247.011C1076.78 247.011 1072.23 245.558 1069.1 242.651C1065.98 239.744 1064.41 235.66 1064.41 230.4V182.078H1064.42Z" fill="black"/>
</g>
<defs>
<clipPath id="clip0_2474_4">
<rect width="1101" height="247" fill="white"/>
</clipPath>
</defs>
</svg>
